<svg width="54" height="54" viewBox="0 0 54 54" fill="none" xmlns="http://www.w3.org/2000/svg">
<path d="M36.5 37C37.3281 37 38 37.6719 38 38.5C38 39.3281 37.3281 40 36.5 40H8.5C7.67188 40 7 39.3281 7 38.5C7 37.6719 7.67188 37 8.5 37H36.5Z" fill="black"/>
<path d="M28.5 25C29.3281 25 30 25.6719 30 26.5C30 27.3281 29.3281 28 28.5 28H8.5C7.67188 28 7 27.3281 7 26.5C7 25.6719 7.67188 25 8.5 25H28.5Z" fill="black"/>
<path d="M44.5 13C45.3281 13 46 13.6719 46 14.5C46 15.3281 45.3281 16 44.5 16H8.5C7.67188 16 7 15.3281 7 14.5C7 13.6719 7.67188 13 8.5 13H44.5Z" fill="black"/>
</svg>
