<svg width="54" height="54" viewBox="0 0 54 54" fill="none" xmlns="http://www.w3.org/2000/svg">
<path d="M16.5 37C15.6719 37 15 37.6719 15 38.5C15 39.3281 15.6719 40 16.5 40H44.5C45.3281 40 46 39.3281 46 38.5C46 37.6719 45.3281 37 44.5 37H16.5Z" fill="black"/>
<path d="M24.5 25C23.6719 25 23 25.6719 23 26.5C23 27.3281 23.6719 28 24.5 28H44.5C45.3281 28 46 27.3281 46 26.5C46 25.6719 45.3281 25 44.5 25H24.5Z" fill="black"/>
<path d="M8.5 13C7.67188 13 7 13.6719 7 14.5C7 15.3281 7.67188 16 8.5 16H44.5C45.3281 16 46 15.3281 46 14.5C46 13.6719 45.3281 13 44.5 13H8.5Z" fill="black"/>
</svg>
