<svg width="54" height="54" viewBox="0 0 54 54" fill="none" xmlns="http://www.w3.org/2000/svg">
<path d="M12.5 37C11.6719 37 11 37.6719 11 38.5C11 39.3281 11.6719 40 12.5 40H40.5C41.3281 40 42 39.3281 42 38.5C42 37.6719 41.3281 37 40.5 37H12.5Z" fill="black"/>
<path d="M16.5 25C15.6719 25 15 25.6719 15 26.5C15 27.3281 15.6719 28 16.5 28H36.5C37.3281 28 38 27.3281 38 26.5C38 25.6719 37.3281 25 36.5 25H16.5Z" fill="black"/>
<path d="M8.5 13C7.67188 13 7 13.6719 7 14.5C7 15.3281 7.67188 16 8.5 16H44.5C45.3281 16 46 15.3281 46 14.5C46 13.6719 45.3281 13 44.5 13H8.5Z" fill="black"/>
</svg>
