<svg width="54" height="54" viewBox="0 0 54 54" fill="none" xmlns="http://www.w3.org/2000/svg">
<path d="M25.5586 40.5576C24.9766 41.1436 24.0234 41.1436 23.4414 40.5576L11.4414 28.5576C11.1563 28.2764 11 27.8975 11 27.499C11 27.1006 11.1563 26.7178 11.4414 26.4365L23.4414 14.4365C24.0235 13.8545 24.9766 13.8545 25.5586 14.4365C26.1446 15.0225 26.1446 15.9756 25.5586 16.5576L16.1211 25.999L40.5001 25.999C41.3282 25.999 42.0001 26.6709 42.0001 27.499C42.0001 28.3271 41.3282 28.999 40.5001 28.999L16.1211 28.999L25.5586 38.4365C26.1446 39.0225 26.1446 39.9756 25.5586 40.5576Z" fill="black"/>
</svg>
