<svg width="59" height="75" viewBox="0 0 59 75" fill="none" xmlns="http://www.w3.org/2000/svg">
<path d="M21.207 60.5427H21.289C22.457 60.4998 23.332 59.4997 23.246 58.3747L22.164 36.0817C22.1211 34.9137 21.289 33.9997 19.996 34.1247C18.828 34.1677 17.953 35.1677 18.039 36.2927L19.121 58.5857C19.1679 59.6677 20.082 60.5427 21.207 60.5427Z" fill="black"/>
<path d="M37.707 60.5433H37.7891C38.9141 60.5433 39.8321 59.6683 39.8711 58.5433L40.9531 36.2503C40.996 35.0823 40.121 34.1253 38.9961 34.0823C37.7461 33.9573 36.8711 34.9143 36.8281 36.0393L35.7461 58.3323C35.6679 59.5003 36.543 60.5004 37.707 60.5433Z" fill="black"/>
<path d="M39.2069 0H19.7929C16.4999 0 13.7929 2.668 13.7929 6V10.418H8.582C3.832 10.418 0 14.293 0 19V23.793C0 26.125 1.875 28 4.207 28.043L6.75 68.461C6.95703 72.043 9.957 74.836 13.543 74.836H45.418C49 74.836 52 72.043 52.211 68.461L54.754 28.043C57.086 28.043 58.961 26.125 58.961 23.793L58.9571 19C58.9571 14.25 55.0821 10.418 50.3751 10.418H45.1251V6C45.2071 2.668 42.4999 0 39.2069 0ZM17.9569 6C17.9569 5 18.7889 4.168 19.7889 4.168H39.2069C40.2069 4.168 41.0389 5.00003 41.0389 6V10.418H17.9569V6ZM48.0819 68.168C47.9999 69.543 46.8319 70.668 45.4139 70.668H13.5429C12.1679 70.668 10.9999 69.586 10.8749 68.168L8.3749 28.043H50.6679L48.0819 68.168ZM54.8749 19V23.793C54.8749 23.836 54.8319 23.875 54.7929 23.875L4.12487 23.793V19C4.12487 16.543 6.12487 14.582 8.54287 14.582H50.4569C52.8749 14.5429 54.8749 16.5429 54.8749 19Z" fill="black"/>
</svg>
