<svg width="54" height="54" viewBox="0 0 54 54" fill="none" xmlns="http://www.w3.org/2000/svg">
<path d="M21 38C22.6562 38 24 39.3438 24 41C24 42.6562 22.6562 44 21 44C19.3438 44 18 42.6562 18 41C18 39.3438 19.3438 38 21 38Z" fill="black"/>
<path d="M33 38C34.6562 38 36 39.3438 36 41C36 42.6562 34.6562 44 33 44C31.3438 44 30 42.6562 30 41C30 39.3438 31.3438 38 33 38Z" fill="black"/>
<path d="M21 24C22.6562 24 24 25.3438 24 27C24 28.6562 22.6562 30 21 30C19.3438 30 18 28.6562 18 27C18 25.3438 19.3438 24 21 24Z" fill="black"/>
<path d="M33 24C34.6562 24 36 25.3438 36 27C36 28.6562 34.6562 30 33 30C31.3438 30 30 28.6562 30 27C30 25.3438 31.3438 24 33 24Z" fill="black"/>
<path d="M21 10C22.6562 10 24 11.3438 24 13C24 14.6562 22.6562 16 21 16C19.3438 16 18 14.6562 18 13C18 11.3438 19.3438 10 21 10Z" fill="black"/>
<path d="M33 10C34.6562 10 36 11.3438 36 13C36 14.6562 34.6562 16 33 16C31.3438 16 30 14.6562 30 13C30 11.3438 31.3438 10 33 10Z" fill="black"/>
</svg>
