<svg width="24" height="24" viewBox="0 0 24 24" fill="none" xmlns="http://www.w3.org/2000/svg">
<path d="M16.5936 4.46732C16.6663 4.46732 16.7358 4.49576 16.7875 4.54738L19.4536 7.21446C19.56 7.32085 19.56 7.49361 19.4526 7.60104L17.5765 9.47705L14.5227 6.42452L16.3999 4.54746C16.4504 4.49584 16.5209 4.46732 16.5936 4.46732ZM13.4862 7.46107L16.54 10.5136V10.5146L8.9249 18.1282L5.54777 18.4526L5.87116 15.0746L13.4862 7.46107ZM16.5928 3.00011C16.1304 3.00011 15.689 3.18445 15.3624 3.50993L4.63667 14.2372C4.52712 14.352 4.45338 14.5037 4.43758 14.6733L4.00356 19.1973C3.98144 19.4238 4.06361 19.6355 4.21319 19.7851L4.21425 19.7862C4.34803 19.9189 4.53238 20 4.73253 20C4.75466 20 4.77994 19.9989 4.80311 19.9968L9.32636 19.5629C9.49491 19.546 9.64555 19.4765 9.76143 19.3659L20.4904 8.63753C21.1699 7.95812 21.1699 6.8563 20.4904 6.17584L17.82 3.50771C17.4945 3.18223 17.0531 3 16.5938 3L16.5928 3.00011Z" fill="black"/>
</svg>
