<svg width="24" height="24" viewBox="0 0 24 24" fill="none" xmlns="http://www.w3.org/2000/svg">
<path d="M3 7.81482C3 7.5496 3.10536 7.29525 3.29289 7.10771C3.48043 6.92018 3.73478 6.81482 4 6.81482H6.66667C6.93188 6.81482 7.18624 6.92018 7.37377 7.10771C7.56131 7.29525 7.66667 7.5496 7.66667 7.81482C7.66667 8.08004 7.56131 8.33439 7.37377 8.52193C7.18624 8.70946 6.93188 8.81482 6.66667 8.81482H4C3.73478 8.81482 3.48043 8.70946 3.29289 8.52193C3.10536 8.33439 3 8.08004 3 7.81482ZM13.74 15.4815H4C3.73478 15.4815 3.48043 15.5868 3.29289 15.7744C3.10536 15.9619 3 16.2163 3 16.4815C3 16.7467 3.10536 17.0011 3.29289 17.1886C3.48043 17.3761 3.73478 17.4815 4 17.4815H13.74C14.0052 17.4815 14.2596 17.3761 14.4471 17.1886C14.6346 17.0011 14.74 16.7467 14.74 16.4815C14.74 16.2163 14.6346 15.9619 14.4471 15.7744C14.2596 15.5868 14.0052 15.4815 13.74 15.4815ZM20 15.4815H18.28V14.4815C18.28 14.2163 18.1746 13.9619 17.9871 13.7744C17.7996 13.5868 17.5452 13.4815 17.28 13.4815C17.0148 13.4815 16.7604 13.5868 16.5729 13.7744C16.3854 13.9619 16.28 14.2163 16.28 14.4815V18.4815C16.28 18.7467 16.3854 19.0011 16.5729 19.1886C16.7604 19.3761 17.0148 19.4815 17.28 19.4815C17.5452 19.4815 17.7996 19.3761 17.9871 19.1886C18.1746 19.0011 18.28 18.7467 18.28 18.4815V17.4815H20C20.2652 17.4815 20.5196 17.3761 20.7071 17.1886C20.8946 17.0011 21 16.7467 21 16.4815C21 16.2163 20.8946 15.9619 20.7071 15.7744C20.5196 15.5868 20.2652 15.4815 20 15.4815ZM10 10.8148C10.2652 10.8148 10.5196 10.7095 10.7071 10.5219C10.8946 10.3344 11 10.08 11 9.81482V8.81482H20C20.2652 8.81482 20.5196 8.70946 20.7071 8.52193C20.8946 8.33439 21 8.08004 21 7.81482C21 7.5496 20.8946 7.29525 20.7071 7.10771C20.5196 6.92018 20.2652 6.81482 20 6.81482H11V5.81482C11 5.5496 10.8946 5.29525 10.7071 5.10771C10.5196 4.92018 10.2652 4.81482 10 4.81482C9.73478 4.81482 9.48043 4.92018 9.29289 5.10771C9.10536 5.29525 9 5.5496 9 5.81482V9.81482C9 10.08 9.10536 10.3344 9.29289 10.5219C9.48043 10.7095 9.73478 10.8148 10 10.8148Z" fill="white"/>
</svg>
