<svg width="54" height="54" viewBox="0 0 54 54" fill="none" xmlns="http://www.w3.org/2000/svg">
<path d="M34.499 11C35.1865 11 35.7881 11.4687 35.956 12.1367L36.956 16.1367C37.1552 16.9414 36.667 17.7539 35.8622 17.9531C35.0575 18.1562 34.245 17.6679 34.0458 16.8633L33.331 14H22.999V39H27.499C28.3271 39 28.999 39.6719 28.999 40.5C28.999 41.3281 28.3271 42 27.499 42H15.499C14.6709 42 13.999 41.3281 13.999 40.5C13.999 39.6719 14.6709 39 15.499 39H19.999V14H9.67099L8.95615 16.8633C8.75303 17.668 7.94055 18.1563 7.13585 17.9531C6.33116 17.7539 5.84285 16.9414 6.04605 16.1367L7.04605 12.1367C7.21011 11.4687 7.81167 11 8.49915 11H34.499Z" fill="black"/>
<path d="M46.499 25C47.0654 25 47.5849 25.3203 47.8428 25.832L48.8428 27.832C49.21 28.5703 48.9092 29.4726 48.1709 29.8398C47.4287 30.2109 46.5264 29.9101 46.1592 29.1679L45.5733 28H40.9991V39H42.4991C43.3272 39 43.9991 39.6718 43.9991 40.5C43.9991 41.3281 43.3272 41.9999 42.4991 41.9999H36.4991C35.671 41.9999 34.9991 41.3281 34.9991 40.5C34.9991 39.6718 35.671 39 36.4991 39H37.9991V28H33.4288L32.8429 29.1679C32.4718 29.9101 31.5695 30.2109 30.8312 29.8398C30.089 29.4726 29.7882 28.5703 30.1593 27.832L31.1593 25.832L31.2647 25.6484C31.5421 25.2461 32.003 25 32.4991 25H46.499Z" fill="black"/>
</svg>
