<svg width="54" height="54" viewBox="0 0 54 54" fill="none" xmlns="http://www.w3.org/2000/svg">
<path fill-rule="evenodd" clip-rule="evenodd" d="M34.0547 24.5553C35.0391 22.4147 38.1914 22.4889 39.0313 24.7702L43.9102 37.9932C44.1954 38.7705 43.7969 39.6338 43.0196 39.9229C42.2422 40.2081 41.379 39.8096 41.0938 39.0323L39.9766 36.005H33.0235L31.9102 39.0323C31.6211 39.8096 30.7579 40.2081 29.9805 39.9229C29.2031 39.6338 28.8047 38.7706 29.0938 37.9932L33.9688 24.7702L34.0547 24.5553ZM34.1289 33.0045H38.8711L36.5 26.567L34.1289 33.0045Z" fill="black"/>
<path d="M17.2067 15.3204C18.3122 12.2266 22.6872 12.2266 23.7965 15.3204L27.9137 26.8243C28.1911 27.6056 27.7848 28.4649 27.0075 28.7423C26.2262 29.0197 25.3669 28.6134 25.0895 27.8361L20.9723 16.3321C20.8121 15.8868 20.1871 15.8868 20.0309 16.3321L14.7731 31.0201H24.4997C25.3278 31.0201 25.9997 31.692 25.9997 32.5201C25.9997 33.3482 25.3278 34.0201 24.4997 34.0201H13.6987L11.9135 39.0162C11.6322 39.7935 10.7729 40.1998 9.99156 39.9224C9.21422 39.6412 8.80796 38.7818 9.08922 38.0044L17.2067 15.3204Z" fill="black"/>
</svg>
