<svg width="95" height="55" viewBox="0 0 95 55" fill="none" xmlns="http://www.w3.org/2000/svg">
<path d="M94.4 36.1L89.3 27.6L94.4 18.9C95.2 17.5 95.2 15.8 94.4 14.4C93.6 13 92.1 12.1 90.5 12.1H70.3C65.3 4.8 57 0 47.5 0C38 0 29.7 4.8 24.7 12.1H4.5C2.9 12.1 1.4 12.9 0.6 14.4C-0.2 15.9 -0.2 17.5 0.6 18.9L5.7 27.4L0.6 36.1C-0.2 37.5 -0.2 39.2 0.6 40.6C1.4 42 2.9 42.9 4.5 42.9H24.7C29.7 50.2 38 55 47.5 55C57 55 65.3 50.2 70.3 42.9H90.5C92.1 42.9 93.6 42.1 94.4 40.6C95.2 39.2 95.2 37.6 94.4 36.1ZM4.9 38.2L9.8 29.8C10.6 28.4 10.6 26.6 9.8 25.2L4.9 16.8H22.1C20.7 20.1 19.9 23.7 19.9 27.5C19.9 31.3 20.7 34.9 22.1 38.2H4.9ZM47.5 50.3C34.9 50.3 24.7 40.1 24.7 27.5C24.7 14.9 34.9 4.7 47.5 4.7C60.1 4.7 70.3 14.9 70.3 27.5C70.3 40.1 60.1 50.3 47.5 50.3ZM72.9 38.2C74.3 34.9 75.1 31.3 75.1 27.5C75.1 23.7 74.3 20.1 72.9 16.8H90.1L85.2 25.2C84.4 26.6 84.4 28.4 85.2 29.8L90.1 38.2H72.9Z" fill="black"/>
<path d="M54.9997 25.2998C54.3997 24.3998 52.8997 24.3998 52.2997 25.2998L49.6997 29.0998L44.8997 22.0998C44.2997 21.1998 42.7997 21.1998 42.1997 22.0998L33.7997 34.4998C33.4997 34.9998 33.3997 35.6998 33.6997 36.1998C33.9997 36.6998 34.4997 37.0998 35.1997 37.0998H59.9997C60.5997 37.0998 61.1997 36.7998 61.4997 36.1998C61.7997 35.6998 61.6997 34.9998 61.3997 34.4998L54.9997 25.2998Z" fill="black"/>
<path d="M52.2998 20.7002C54.2328 20.7002 55.7998 19.1332 55.7998 17.2002C55.7998 15.2672 54.2328 13.7002 52.2998 13.7002C50.3668 13.7002 48.7998 15.2672 48.7998 17.2002C48.7998 19.1332 50.3668 20.7002 52.2998 20.7002Z" fill="black"/>
</svg>
